<svg width="29" height="29" viewBox="0 0 29 29" fill="none" xmlns="http://www.w3.org/2000/svg">
<path d="M9.6998 23.3508C9.6998 23.4707 9.56532 23.5666 9.39577 23.5666C9.20282 23.5846 9.06835 23.4887 9.06835 23.3508C9.06835 23.2308 9.20282 23.1349 9.37238 23.1349C9.54778 23.1169 9.6998 23.2128 9.6998 23.3508ZM7.88145 23.0809C7.84052 23.2008 7.95746 23.3388 8.13286 23.3747C8.28488 23.4347 8.46028 23.3747 8.49536 23.2548C8.53044 23.1349 8.41935 22.997 8.24395 22.943C8.09194 22.901 7.92238 22.961 7.88145 23.0809ZM10.4657 22.979C10.2962 23.0209 10.1792 23.1349 10.1968 23.2728C10.2143 23.3927 10.3663 23.4707 10.5417 23.4287C10.7113 23.3867 10.8282 23.2728 10.8107 23.1529C10.7931 23.0389 10.6353 22.961 10.4657 22.979ZM14.3129 0C6.20343 0 0 6.31442 0 14.6317C0 21.2819 4.08105 26.9727 9.91028 28.9756C10.6587 29.1135 10.9218 28.6398 10.9218 28.25C10.9218 27.8782 10.9042 25.8274 10.9042 24.5681C10.9042 24.5681 6.81149 25.4676 5.95202 22.7811C5.95202 22.7811 5.28548 21.0361 4.32661 20.5863C4.32661 20.5863 2.9877 19.6449 4.42016 19.6628C4.42016 19.6628 5.87601 19.7828 6.67702 21.21C7.95746 23.5247 10.1032 22.859 10.9393 22.4633C11.0738 21.5038 11.4538 20.8382 11.8748 20.4424C8.60645 20.0706 5.30887 19.5849 5.30887 13.8162C5.30887 12.1671 5.75323 11.3396 6.68871 10.2842C6.53669 9.89439 6.03972 8.2873 6.84073 6.21248C8.0627 5.8227 10.875 7.83156 10.875 7.83156C12.0444 7.49575 13.3014 7.32185 14.5468 7.32185C15.7921 7.32185 17.0492 7.49575 18.2185 7.83156C18.2185 7.83156 21.0308 5.8167 22.2528 6.21248C23.0538 8.2933 22.5569 9.89439 22.4048 10.2842C23.3403 11.3456 23.9133 12.1731 23.9133 13.8162C23.9133 19.6029 20.4696 20.0646 17.2012 20.4424C17.7391 20.9161 18.1952 21.8156 18.1952 23.2248C18.1952 25.2457 18.1776 27.7463 18.1776 28.238C18.1776 28.6278 18.4466 29.1015 19.1891 28.9636C25.0359 26.9727 29 21.2819 29 14.6317C29 6.31442 22.4224 0 14.3129 0ZM5.68306 20.6823C5.60706 20.7422 5.6246 20.8802 5.72399 20.9941C5.81754 21.09 5.95202 21.132 6.02802 21.0541C6.10403 20.9941 6.08649 20.8562 5.9871 20.7422C5.89355 20.6463 5.75907 20.6043 5.68306 20.6823ZM5.05161 20.1965C5.01069 20.2745 5.06915 20.3704 5.18609 20.4304C5.27964 20.4904 5.39657 20.4724 5.4375 20.3884C5.47843 20.3105 5.41996 20.2145 5.30302 20.1546C5.18609 20.1186 5.09254 20.1366 5.05161 20.1965ZM6.94597 22.3313C6.85242 22.4093 6.8875 22.5892 7.02198 22.7031C7.15645 22.841 7.32601 22.859 7.40202 22.7631C7.47802 22.6851 7.44294 22.5052 7.32601 22.3913C7.19738 22.2534 7.02198 22.2354 6.94597 22.3313ZM6.27944 21.4498C6.18589 21.5098 6.18589 21.6657 6.27944 21.8036C6.37298 21.9416 6.53085 22.0015 6.60685 21.9416C6.7004 21.8636 6.7004 21.7077 6.60685 21.5698C6.525 21.4318 6.37298 21.3719 6.27944 21.4498Z" fill="#F3455A"/>
</svg>
