<svg width="29" height="29" viewBox="0 0 29 29" fill="none" xmlns="http://www.w3.org/2000/svg">
<path d="M26.9286 0H2.06496C0.92567 0 0 0.938616 0 2.09085V26.9092C0 28.0614 0.92567 29 2.06496 29H26.9286C28.0679 29 29 28.0614 29 26.9092V2.09085C29 0.938616 28.0679 0 26.9286 0ZM8.76473 24.8571H4.46652V11.0174H8.7712V24.8571H8.76473ZM6.61562 9.12723C5.23683 9.12723 4.12344 8.00737 4.12344 6.63504C4.12344 5.26272 5.23683 4.14286 6.61562 4.14286C7.98795 4.14286 9.10781 5.26272 9.10781 6.63504C9.10781 8.01384 7.99442 9.12723 6.61562 9.12723ZM24.8766 24.8571H20.5783V18.125C20.5783 16.5196 20.546 14.4547 18.3451 14.4547C16.1054 14.4547 15.7623 16.2025 15.7623 18.0085V24.8571H11.4641V11.0174H15.5875V12.9076H15.6458C16.2219 11.8201 17.6266 10.6743 19.7174 10.6743C24.0674 10.6743 24.8766 13.542 24.8766 17.2705V24.8571Z" fill="#F3455A"/>
</svg>
