<svg xmlns="http://www.w3.org/2000/svg" width="32" height="29" fill="none" viewBox="0 0 32 29"><g filter="url(#filter0_d)"><path fill="#FFDA59" d="M14.5648 2.86965L11.2693 9.3337L3.89601 10.3736C2.57377 10.5591 2.04386 12.1361 3.00274 13.0393L8.33712 18.068L7.07544 25.1716C6.84834 26.4556 8.24628 27.4174 9.41712 26.8169L16.0132 23.4628L22.6092 26.8169C23.7801 27.4125 25.178 26.4556 24.9509 25.1716L23.6892 18.068L29.0236 13.0393C29.9825 12.1361 29.4526 10.5591 28.1304 10.3736L20.7571 9.3337L17.4616 2.86965C16.8711 1.71745 15.1603 1.7028 14.5648 2.86965Z"/><path stroke="#000" stroke-opacity=".41" stroke-width=".5" d="M11.3042 9.58125L11.4329 9.56309L11.492 9.44725L14.7875 2.9833C14.7875 2.98327 14.7875 2.98323 14.7875 2.9832C15.289 2.00073 16.7402 2.01036 17.2391 2.98357C17.2391 2.9836 17.2391 2.98364 17.2391 2.98367L20.5344 9.44725L20.5934 9.56309L20.7222 9.58125L28.0954 10.6212L28.0956 10.6212C29.2221 10.7792 29.6497 12.1061 28.8522 12.8573L28.8521 12.8574L23.5178 17.8861L23.4195 17.9787L23.4431 18.1117L24.7047 25.2151C24.8921 26.2744 23.7295 27.1063 22.7226 26.5941L22.7226 26.594L16.1265 23.24L16.0132 23.1823L15.8999 23.24L9.3038 26.594L9.30303 26.5944C8.29783 27.11 7.13403 26.2758 7.32162 25.2151L8.58327 18.1117L8.60689 17.9787L8.50861 17.8861L3.17423 12.8574L3.17415 12.8573C2.37668 12.1061 2.80429 10.7792 3.93075 10.6212L3.93092 10.6212L11.3042 9.58125Z"/></g><defs><filter id="filter0_d" width="31" height="29" x=".513" y="0" color-interpolation-filters="sRGB" filterUnits="userSpaceOnUse"><feFlood flood-opacity="0" result="BackgroundImageFix"/><feColorMatrix in="SourceAlpha" type="matrix" values="0 0 0 0 0 0 0 0 0 0 0 0 0 0 0 0 0 0 127 0"/><feOffset/><feGaussianBlur stdDeviation="1"/><feColorMatrix type="matrix" values="0 0 0 0 0 0 0 0 0 0 0 0 0 0 0 0 0 0 0.25 0"/><feBlend in2="BackgroundImageFix" mode="normal" result="effect1_dropShadow"/><feBlend in="SourceGraphic" in2="effect1_dropShadow" mode="normal" result="shape"/></filter></defs></svg>