<svg width="29" height="39" viewBox="0 0 29 39" fill="none" xmlns="http://www.w3.org/2000/svg">
<path d="M28.4192 33.3455L26.3657 10.75C26.3078 10.1274 25.7866 9.65208 25.1616 9.65208H21.5421V7.23906C21.5421 5.29899 20.7916 3.47716 19.4283 2.1138C18.0649 0.750449 16.2431 0 14.303 0C10.3119 0 7.06397 3.24792 7.06397 7.23906V9.65208H3.44444C2.81947 9.65208 2.29825 10.1274 2.24275 10.75L0.189275 33.3455C0.066211 34.692 0.519859 36.0384 1.43198 37.0374C2.3441 38.0364 3.6423 38.6083 4.99601 38.6083H23.6125C24.9662 38.6083 26.2644 38.0364 27.1765 37.0374C28.0886 36.0384 28.5398 34.692 28.4192 33.3455ZM9.47699 7.23906C9.47699 4.5775 11.6415 2.41302 14.303 2.41302C15.5988 2.41302 16.8126 2.91251 17.7223 3.81981C18.632 4.7271 19.1291 5.94327 19.1291 7.23906V9.65208H9.47699V7.23906ZM25.3933 35.4111C24.93 35.9154 24.2977 36.1953 23.61 36.1953H4.99601C4.31071 36.1953 3.67609 35.9154 3.2152 35.4086C2.7519 34.9019 2.53232 34.248 2.59506 33.5627L4.54719 12.0651H7.06397V15.6846C7.06397 16.3506 7.60448 16.8911 8.27048 16.8911C8.93647 16.8911 9.47699 16.3506 9.47699 15.6846V12.0651H19.1291V15.6846C19.1291 16.3506 19.6696 16.8911 20.3356 16.8911C21.0016 16.8911 21.5421 16.3506 21.5421 15.6846V12.0651H24.0589L26.0134 33.5651C26.0761 34.248 25.8566 34.9043 25.3933 35.4111Z" fill="#F3455A"/>
</svg>
