<svg width="28" height="27" viewBox="0 0 28 27" fill="none" xmlns="http://www.w3.org/2000/svg">
<g filter="url(#filter0_d)">
<path d="M12.3646 2.77312L9.5304 8.51965L3.18926 9.44413C2.0521 9.60906 1.59637 11.011 2.42103 11.8139L7.0087 16.2844L5.92363 22.5995C5.72832 23.741 6.93058 24.596 7.93752 24.0622L13.6103 21.0804L19.283 24.0622C20.29 24.5917 21.4922 23.741 21.2969 22.5995L20.2118 16.2844L24.7995 11.8139C25.6242 11.011 25.1684 9.60906 24.0313 9.44413L17.6901 8.51965L14.8559 2.77312C14.3481 1.74881 12.8768 1.73579 12.3646 2.77312Z" fill="white"/>
<path d="M9.56647 8.76703L9.69649 8.74808L9.75462 8.63023L12.5888 2.8838C13.0079 2.0349 14.2145 2.04253 14.6318 2.88396C14.6319 2.88403 14.6319 2.8841 14.6319 2.88416L17.4659 8.63023L17.524 8.74808L17.6541 8.76703L23.9952 9.69151L23.9954 9.69154C24.9272 9.82669 25.3013 10.9763 24.6251 11.6348L24.625 11.6349L20.0374 16.1054L19.9432 16.1971L19.9654 16.3267L21.0505 22.6417C21.2103 23.5756 20.226 24.2756 19.3994 23.8409L19.3993 23.8409L13.7266 20.8591L13.6103 20.798L13.4939 20.8591L7.8212 23.8409L7.82042 23.8413C6.99557 24.2786 6.00999 23.5771 6.17005 22.6417L7.25509 16.3267L7.27736 16.1971L7.18318 16.1054L2.5955 11.6349L2.59543 11.6348C1.91918 10.9763 2.29331 9.82669 3.22514 9.69154L3.22532 9.69151L9.56647 8.76703Z" stroke="black" stroke-opacity="0.3" stroke-width="0.5"/>
</g>
<defs>
<filter id="filter0_d" x="0" y="0" width="27.2205" height="26.225" filterUnits="userSpaceOnUse" color-interpolation-filters="sRGB">
<feFlood flood-opacity="0" result="BackgroundImageFix"/>
<feColorMatrix in="SourceAlpha" type="matrix" values="0 0 0 0 0 0 0 0 0 0 0 0 0 0 0 0 0 0 127 0"/>
<feOffset/>
<feGaussianBlur stdDeviation="1"/>
<feColorMatrix type="matrix" values="0 0 0 0 0 0 0 0 0 0 0 0 0 0 0 0 0 0 0.25 0"/>
<feBlend mode="normal" in2="BackgroundImageFix" result="effect1_dropShadow"/>
<feBlend mode="normal" in="SourceGraphic" in2="effect1_dropShadow" result="shape"/>
</filter>
</defs>
</svg>
